<?xml version="1.0" encoding="UTF-8" standalone="no"?>
<!-- Uploaded to: SVG Repo, www.svgrepo.com, Generator: SVG Repo Mixer Tools -->

<svg
   width="800px"
   height="800px"
   viewBox="0 0 24 24"
   fill="none"
   version="1.1"
   id="svg2"
   sodipodi:docname="logo-2.svg"
   inkscape:version="1.3 (0e150ed6c4, 2023-07-21)"
   inkscape:export-filename="logo.png"
   inkscape:export-xdpi="48"
   inkscape:export-ydpi="48"
   xmlns:inkscape="http://www.inkscape.org/namespaces/inkscape"
   xmlns:sodipodi="http://sodipodi.sourceforge.net/DTD/sodipodi-0.dtd"
   xmlns="http://www.w3.org/2000/svg"
   xmlns:svg="http://www.w3.org/2000/svg">
  <defs
     id="defs2">
    <filter
       inkscape:collect="always"
       style="color-interpolation-filters:sRGB"
       id="filter1"
       x="-0.050876482"
       y="-0.045788646"
       width="1.101753"
       height="1.0915773">
      <feGaussianBlur
         inkscape:collect="always"
         stdDeviation="0.39249791"
         id="feGaussianBlur1" />
    </filter>
  </defs>
  <sodipodi:namedview
     id="namedview2"
     pagecolor="#ffffff"
     bordercolor="#000000"
     borderopacity="0.25"
     inkscape:showpageshadow="2"
     inkscape:pageopacity="0.0"
     inkscape:pagecheckerboard="0"
     inkscape:deskcolor="#d1d1d1"
     inkscape:zoom="0.550625"
     inkscape:cx="339.61407"
     inkscape:cy="373.21226"
     inkscape:window-width="1920"
     inkscape:window-height="1119"
     inkscape:window-x="0"
     inkscape:window-y="0"
     inkscape:window-maximized="1"
     inkscape:current-layer="svg2" />
  <path
     id="path1-3"
     style="opacity:0.45;mix-blend-mode:normal;fill:#0e4e88;fill-opacity:1;stroke-width:1.02863;filter:url(#filter1)"
     d="M 12.422695 1.7299805 C 11.277007 1.7299805 10.233531 2.3479034 8.1467578 3.5837109 L 7.4409375 4.0016602 C 5.3541334 5.2374677 4.3107363 5.8554058 3.7378711 6.8731641 C 3.1649956 7.8909224 3.165 9.1267422 3.165 11.598398 L 3.165 12.434238 C 3.165 14.905935 3.1649956 16.141746 3.7378711 17.159473 C 4.3107363 18.177201 5.3541334 18.795121 7.4409375 20.030918 L 8.1467578 20.448926 C 10.233531 21.684723 11.277007 22.302656 12.422695 22.302656 C 13.568488 22.302656 14.611804 21.684723 16.698691 20.448926 L 17.404453 20.030918 C 19.491236 18.795121 20.534674 18.1772 21.10752 17.159473 C 21.680364 16.141745 21.680332 14.905935 21.680332 12.434238 L 21.680332 11.598398 C 21.680332 9.1267422 21.680364 7.8909224 21.10752 6.8731641 C 20.534674 5.8554058 19.491236 5.2374677 17.404453 4.0016602 L 16.698691 3.5837109 C 14.611804 2.3479034 13.568488 1.7299805 12.422695 1.7299805 z M 12.427676 8.25 C 14.498774 8.25 16.177676 9.9289321 16.177676 12 C 16.177676 14.071098 14.498774 15.75 12.427676 15.75 C 10.356678 15.75 8.6777344 14.071098 8.6777344 12 C 8.6777344 9.9289321 10.356678 8.25 12.427676 8.25 z " />
  <path
     id="path1"
     style="fill:#34bbec;fill-opacity:1;opacity:1"
     d="M 12.427676 1.9999805 C 11.313877 1.9999805 10.299489 2.600681 8.2708008 3.8020898 L 7.584668 4.2084375 C 5.55595 5.4098463 4.5415874 6.0105905 3.984668 7.0000195 C 3.4277385 7.9894485 3.4277344 9.1908533 3.4277344 11.593711 L 3.4277344 12.406289 C 3.4277344 14.809187 3.4277385 16.010581 3.984668 16.99998 C 4.5415874 17.989379 5.55595 18.590105 7.584668 19.791504 L 8.2708008 20.19791 C 10.299489 21.399309 11.313877 22.00002 12.427676 22.00002 C 13.541575 22.00002 14.555929 21.399309 16.584727 20.19791 L 17.270801 19.791504 C 19.299499 18.590105 20.313901 17.989379 20.870801 16.99998 C 21.4277 16.010581 21.427676 14.809187 21.427676 12.406289 L 21.427676 11.593711 C 21.427676 9.1908533 21.4277 7.9894485 20.870801 7.0000195 C 20.313901 6.0105905 19.299499 5.4098463 17.270801 4.2084375 L 16.584727 3.8020898 C 14.555929 2.600681 13.541575 1.9999805 12.427676 1.9999805 z M 12.427676 8.25 C 14.498774 8.25 16.177676 9.9289321 16.177676 12 C 16.177676 14.071098 14.498774 15.75 12.427676 15.75 C 10.356678 15.75 8.6777344 14.071098 8.6777344 12 C 8.6777344 9.9289321 10.356678 8.25 12.427676 8.25 z " />
</svg>
